<svg width="16" height="16" viewBox="0 0 16 16" fill="none" xmlns="http://www.w3.org/2000/svg">
<g clip-path="url(#clip0_2060_14232)">
<path d="M10.4517 9.72434C12.7783 9.72434 14.665 7.84567 14.665 5.52834C14.665 3.21101 12.7783 1.33301 10.4517 1.33301C8.12499 1.33301 6.24033 3.21167 6.24033 5.52834C6.24033 6.60167 6.72966 7.38234 6.72966 7.38234L1.63499 12.4557C1.40633 12.6837 1.08633 13.2757 1.63499 13.8223L2.22299 14.4077C2.45166 14.603 3.02633 14.8763 3.49633 14.4077L4.18299 13.725C4.86833 14.4077 5.65233 14.0177 5.94633 13.627C6.43566 12.9443 5.84833 12.261 5.84833 12.261L6.04433 12.0657C6.98433 13.003 7.80766 12.4563 8.10166 12.0657C8.59166 11.383 8.10166 10.6997 8.10166 10.6997C7.90566 10.3097 7.51366 10.3097 8.00366 9.82167L8.59166 9.23634C9.06166 9.62634 10.0283 9.72434 10.453 9.72434H10.4517Z" stroke="#623FB5" stroke-linejoin="round"/>
<path d="M11.923 5.52943C11.9222 5.9183 11.7669 6.2909 11.4913 6.56531C11.2158 6.83972 10.8426 6.99347 10.4537 6.99277C10.0648 6.99347 9.69161 6.83972 9.41607 6.56531C9.14054 6.2909 8.98526 5.9183 8.98438 5.52943C8.98472 5.33683 9.02301 5.14618 9.09704 4.96837C9.17107 4.79056 9.2794 4.62907 9.41584 4.49312C9.55228 4.35718 9.71416 4.24944 9.89224 4.17605C10.0703 4.10267 10.2611 4.06508 10.4537 4.06543C10.6463 4.06508 10.8371 4.10267 11.0152 4.17605C11.1933 4.24944 11.3551 4.35718 11.4916 4.49312C11.628 4.62907 11.7363 4.79056 11.8104 4.96837C11.8844 5.14618 11.9227 5.33683 11.923 5.52943Z" stroke="#623FB5"/>
</g>
<defs>
<clipPath id="clip0_2060_14232">
<rect width="16" height="16" fill="white"/>
</clipPath>
</defs>
</svg>
